<?xml version="1.0" encoding="UTF-8" standalone="no"?>
<!DOCTYPE svg PUBLIC "-//W3C//DTD SVG 1.1//EN" "http://www.w3.org/Graphics/SVG/1.1/DTD/svg11.dtd">
<svg width="100%" height="100%" viewBox="0 0 1594 1260" version="1.1" xmlns="http://www.w3.org/2000/svg" xmlns:xlink="http://www.w3.org/1999/xlink" xml:space="preserve" xmlns:serif="http://www.serif.com/" style="fill-rule:evenodd;clip-rule:evenodd;stroke-linecap:round;stroke-linejoin:round;stroke-miterlimit:1.5;">
    <g id="Layer1">
        <g>
            <g transform="matrix(1.09768,0,0,1.10223,-120.6,26.1611)">
                <path d="M428.147,831.402C432.818,826.683 451.978,820.977 458.309,819.993C464.366,819.052 469.348,814.701 475.366,813.663C483.911,812.187 496.335,807.115 502.981,801.457C519.981,786.983 537.609,772.838 554.731,758.319C565.434,749.242 574.697,738.497 585.379,729.402C610.052,708.396 641.169,689.715 672.025,679.775C677.839,677.901 683.041,674.085 688.884,672.097C698.932,668.68 709.059,665.854 719.186,662.746C723.53,661.413 728.699,658.782 733.205,658.782" style="fill:rgb(255,0,0);fill-opacity:0;stroke:black;stroke-width:29.09px;"/>
            </g>
            <g transform="matrix(1.09768,0,0,1.10223,-120.6,26.1611)">
                <path d="M427.806,832.126C427.806,858.286 443.346,877.077 446.533,902.571C448.789,920.624 447.233,939.883 444.994,957.715C444.003,965.603 443.131,976.163 444.449,984.074C446.7,997.58 459.939,1005.34 470.298,1011.17C477.776,1015.37 487.51,1017.71 494.165,1011.02C496.495,1008.68 495.361,997.028 495.754,994.483C498.212,978.563 502.489,963.281 505.238,947.194C510.848,914.373 530.557,883.853 556.496,863.519C569.686,853.18 583.156,841.835 597.277,832.866C615.239,821.457 634.671,811.792 653.332,801.337C665.433,794.557 675.453,783.993 688.337,778.308C701.713,772.407 716.028,769.187 729.629,763.186C747.28,755.398 762.352,743.735 779.426,735.165C790.569,729.572 803.833,723.992 812.634,715.1C814.26,713.457 817.484,706.321 818.673,704.608C832.797,684.257 923.606,491.171 923.606,466.75" style="fill:rgb(255,0,0);fill-opacity:0;stroke:black;stroke-width:29.09px;"/>
            </g>
            <g transform="matrix(1.09768,0,0,1.10223,-120.6,26.1611)">
                <path d="M721.77,651.095C721.77,632.484 734.263,605.172 740.033,585.907C748.224,558.559 746.844,529.013 752.926,501.355C756.474,485.221 760.862,469.675 767.915,454.853C770.613,449.185 773.874,444.177 776.892,438.735C777.039,438.47 780.863,431.285 780.863,431.579" style="fill:rgb(255,0,0);fill-opacity:0;stroke:black;stroke-width:29.09px;"/>
            </g>
            <g transform="matrix(1.09768,0,0,1.10223,-120.6,26.1611)">
                <path d="M921.22,464.709C921.22,481.815 914.156,495.781 908.816,511.545C898.316,542.546 887.812,573.694 875.52,604.152C871.854,613.234 865.662,621.035 861.757,629.886C856.108,642.688 847.656,654.295 841.392,666.793C839.641,670.286 837.045,678.691 833.475,678.691" style="fill:rgb(255,0,0);fill-opacity:0;stroke:black;stroke-width:29.09px;"/>
            </g>
            <g transform="matrix(1.09768,0,0,1.10223,-120.6,26.1611)">
                <path d="M892.475,564.147C892.475,569.595 905.466,577.807 908.789,582.46C916.321,593.005 923.829,604.353 930.802,615.4C937.097,625.374 952.319,631.971 955.632,644.47C968.435,692.778 951.467,745.372 969.525,793.525C978.814,818.296 989.285,839.158 1002.27,862.192C1013.48,882.087 1030.28,895.992 1038.46,917.804C1058.56,971.392 1028.34,1034.91 1108.59,1005.3C1116.45,1002.4 1128.83,996.286 1134.65,990.399" style="fill:rgb(255,0,0);fill-opacity:0;stroke:black;stroke-width:29.09px;"/>
            </g>
            <g transform="matrix(1.09768,0,0,1.10223,-120.6,26.1611)">
                <path d="M922.97,516.025C972.191,516.025 1020.37,500.772 1072.35,506.026C1080.93,506.893 1089.02,511.442 1097.45,512.513C1121.77,515.605 1146.06,518.793 1170.28,522.83C1211.6,529.716 1248.5,545.019 1291.37,539.635C1313.86,536.81 1309.26,531.166 1321.29,531.166" style="fill:rgb(255,0,0);fill-opacity:0;stroke:black;stroke-width:29.09px;"/>
            </g>
            <g transform="matrix(1.09768,0,0,1.10223,-120.6,26.1611)">
                <path d="M1144.41,990.488C1182.72,990.488 1175.53,971.511 1200.05,964.944C1209.68,962.366 1220.9,964.21 1230.42,961.661C1236.12,960.133 1245.24,936.59 1241.62,934.777C1234.59,931.262 1223,933.135 1214.97,933.135C1174.25,933.135 1106.84,946.531 1088.09,898.638C1084.64,889.836 1079.35,881.301 1077.31,872.013C1064.04,811.51 1048.31,749.606 1037.76,688.337C1033.35,662.746 1042.71,637.621 1046.76,613.936C1047.72,608.314 1045.19,594.161 1037.94,594.161" style="fill:rgb(255,0,0);fill-opacity:0;stroke:black;stroke-width:29.09px;"/>
            </g>
            <g transform="matrix(1.09768,0,0,1.10223,-120.6,26.1611)">
                <path d="M1037.94,594.161C1037.94,588.157 1018.3,548.396 1014.75,541.302C1012.43,536.66 1013.27,525.918 1009.21,521.858" style="fill:rgb(255,0,0);fill-opacity:0;stroke:black;stroke-width:29.09px;"/>
            </g>
            <g transform="matrix(1.09768,0,0,1.10223,-120.6,26.1611)">
                <path d="M577.612,479.311C577.612,477.2 558.317,485.778 557.434,486.275C540.805,495.633 520.765,507.389 511.777,525.181C511.705,525.325 511.849,525.519 511.777,525.662C511.548,526.115 510.623,527.106 511.772,527.106C519.465,527.106 533.923,548.215 535.803,555.765C536.796,559.752 555.085,605.842 556.184,606.392C558.247,607.424 560.337,603.92 562.221,603.595C570.731,602.126 582.691,598.785 590.24,594.518C609.761,583.484 634.989,577.762 650.842,560.923C664.228,546.705 667.472,526.735 679.298,511.561C689.513,498.453 700.826,497.574 716.845,497.574C718.605,497.574 746.417,497.574 733.809,497.574" style="fill:rgb(255,0,0);fill-opacity:0;stroke:black;stroke-width:29.09px;"/>
            </g>
            <g transform="matrix(1.09768,0,0,1.10223,-120.6,26.1611)">
                <path d="M189.076,819.714C215.308,819.714 234.897,800.985 256.652,788.689C310.742,758.116 363.884,681.002 386.556,625.478C402.815,585.658 433.272,555.844 471.447,536.56C476.455,534.03 482.245,528.475 488.157,528.475" style="fill:rgb(255,0,0);fill-opacity:0;stroke:black;stroke-width:29.09px;"/>
            </g>
            <g transform="matrix(1.09768,0,0,1.10223,-120.6,26.1611)">
                <path d="M126.213,533.028C195.881,533.028 264.381,499.219 330.616,480.457C364.128,470.964 396.058,479.27 422.794,452.472C438.756,436.472 458.075,423.287 474.428,407.837C493.268,390.035 518.029,355.112 537.852,341.015C556.549,327.718 575.341,314.332 593.409,300.496C637.875,266.449 685.407,229.735 742.761,220.823C761.559,217.902 724.111,220.823 742.761,220.823" style="fill:rgb(255,0,0);fill-opacity:0;stroke:black;stroke-width:29.09px;"/>
            </g>
            <g transform="matrix(1.09768,0,0,1.10223,-120.6,26.1611)">
                <path d="M140.116,540.716C169.636,540.716 210.763,562.021 231.5,582.758C238.687,589.945 246.309,596.349 255.129,600.743C258.762,602.552 262.229,604.071 265.679,606.248C266.798,606.954 270.851,607.211 269.528,607.211C242.558,607.211 244.918,681.785 240.745,698.416C233.229,728.368 229.726,765.791 210.543,791.273C206.665,796.425 198.306,817.7 192.975,817.7" style="fill:rgb(255,0,0);fill-opacity:0;stroke:black;stroke-width:29.09px;"/>
            </g>
            <g transform="matrix(1.09768,0,0,1.10223,-120.6,26.1611)">
                <path d="M737.581,216.073C771.356,216.073 868.191,190.636 902.435,190.636C932.939,190.636 967.602,195.322 997.757,190.636C1023.42,186.649 1054.04,188.061 1079.49,191.296C1121.68,196.66 1163.66,213.268 1202.85,230.52C1224.99,240.267 1246.86,247.477 1267.56,260.622C1285.88,272.252 1303.14,286.002 1323.14,294.807C1339.98,302.22 1355.46,312.289 1371.68,320.396C1380.88,324.997 1391.97,326.117 1401.39,330.827C1436.95,348.609 1474.23,365.13 1507.27,387.158C1516.91,393.586 1552.52,427.444 1543.47,441.649C1536.6,452.442 1516.24,457.496 1504.26,460.11C1492.68,462.634 1457.42,462.367 1446.44,462.367" style="fill:rgb(255,0,0);fill-opacity:0;stroke:black;stroke-width:29.09px;"/>
            </g>
            <g transform="matrix(1.09768,0,0,1.10223,-120.6,26.1611)">
                <path d="M1320.52,530.014C1340.69,530.014 1402.01,536.037 1421.46,531.758C1436.11,528.535 1440.17,526.861 1454.42,524.401C1463.67,522.803 1487.37,515.547 1495.37,510.45C1503.27,505.424 1511.48,499.508 1508.3,499.508C1500.02,499.508 1486.66,490.361 1478.7,488.371C1472.2,486.746 1446.43,471.135 1446.43,464.368" style="fill:rgb(255,0,0);fill-opacity:0;stroke:black;stroke-width:29.09px;"/>
            </g>
            <g transform="matrix(1.09768,0,0,1.10223,-120.6,26.1611)">
                <path d="M1240.15,433.272C1240.7,433.272 1238.75,401.589 1238.75,392.331C1238.75,382.839 1239.82,376.207 1242.62,367.159C1243.94,362.896 1271.24,332.201 1278.35,332.201" style="fill:rgb(255,0,0);fill-opacity:0;stroke:black;stroke-width:29.09px;"/>
            </g>
            <g transform="matrix(1.09768,0,0,1.10223,-120.6,26.1611)">
                <path d="M1435.8,414.215C1435.8,410.557 1433.43,403.424 1435.13,399.98C1435.5,399.24 1436.39,399.494 1437.06,399.494C1449.47,399.494 1441.02,413.704 1432.79,413.704C1431.77,413.704 1428.73,414.227 1427.68,413.704C1420.41,410.069 1425.61,397.167 1431.32,397.167" style="fill:rgb(255,0,0);fill-opacity:0;stroke:black;stroke-width:29.09px;"/>
            </g>
            <g transform="matrix(1.09768,0,0,1.10223,-120.6,26.1611)">
                <path d="M1020.81,184.894C1017.37,184.03 1009.76,183.2 1007.26,180.691C987.44,160.875 951.278,136.408 919.282,118.97C848.738,80.524 818.178,81.434 812.033,87.517C810.847,88.691 805.83,112.132 804.521,115.924C799.775,129.67 793.729,147.965 785.145,159.601C773.117,175.905 749.624,191.128 749.624,213.618" style="fill:rgb(255,0,0);fill-opacity:0;stroke:black;stroke-width:29.09px;"/>
            </g>
            <g transform="matrix(1.09768,0,0,1.10223,-120.6,26.1611)">
                <path d="M1211.51,474.539C1171.19,474.539 1132.54,495.701 1090.49,488.665C1072.1,485.588 1056.84,453.217 1048.9,439.125C1040.06,423.458 1027.62,427.232 1014.16,420.505C1013.52,420.182 1012.52,420.045 1012.34,419.349C1005.74,394.585 1027.82,393.1 1043.88,385.04C1055.6,379.161 1078.03,383.215 1091.51,383.215C1124.75,383.215 1160.11,381.876 1194.3,381.876" style="fill:rgb(255,0,0);fill-opacity:0;stroke:black;stroke-width:29.09px;"/>
            </g>
            <g transform="matrix(1.09768,0,0,1.10223,-120.6,26.1611)">
                <path d="M1126.85,520.223C1126.85,542.475 1120.35,594.474 1116.63,616.66C1115.45,623.675 1111.61,639.688 1119.1,644.416C1148.45,662.942 1211.54,597.934 1228.69,577.659C1232.64,572.986 1277.08,546.538 1277.08,539.313" style="fill:rgb(255,0,0);fill-opacity:0;stroke:black;stroke-width:29.09px;"/>
            </g>
        </g>
    </g>
</svg>
